<?xml version="1.0" encoding="utf-8"?>
<!-- Generator: Adobe Illustrator 25.0.1, SVG Export Plug-In . SVG Version: 6.00 Build 0)  -->
<svg version="1.1" id="Layer_1" xmlns="http://www.w3.org/2000/svg" xmlns:xlink="http://www.w3.org/1999/xlink" x="0px" y="0px"
	 viewBox="0 0 758.3 225" style="enable-background:new 0 0 758.3 225;" xml:space="preserve">
<style type="text/css">
	.st0{fill:#053534;}
	.st1{fill:#71544E;}
	.st2{fill:#9D8979;}
	.st3{fill:#ECF1F0;}
	.st4{fill:#ECCA97;}
	.st5{fill:#FFFFFF;}
	.st6{fill:#3BDE58;}
	.st7{fill-rule:evenodd;clip-rule:evenodd;fill:#FFFFFF;}
	.st8{fill:none;stroke:#000000;stroke-miterlimit:10;}
	.st9{clip-path:url(#SVGID_18_);}
</style>
<g>
	<path class="st0" d="M222.94,211.35c-2.48-0.53-4.64-1.58-6.56-3.2l2.54-3.12c4.56,6.19,21.46,1.3,11.81-5.35
		c-3.8-1.37-9.11-0.83-11.67-4.32c-6.45-11.36,10.08-17.34,17.96-10.25l-2.32,3.24c-4.97-5.96-19.22,0.3-9.93,5.77
		C243.3,194.75,240.92,215.08,222.94,211.35z"/>
	<path class="st0" d="M288.55,182.37h20.52v3.88h-20.52V182.37z M296.77,184.75h4.08v26.7h-4.08V184.75z"/>
	<path class="st0" d="M365.68,210.42c-6.12-3.06-4.75-11.95-4.86-17.63c-0.63-8.33,8.71-13.37,15.58-9.39
		c6.12,3.06,4.75,11.95,4.86,17.63C381.89,209.36,372.54,214.4,365.68,210.42z M374.21,206.92c4.36-2.22,2.49-10.4,2.87-14.27
		c0.66-6.41-8.49-9.14-11.33-3.45C363.91,195.42,363.45,211.78,374.21,206.92z"/>
	<path class="st0" d="M436.6,182.35h4.08v29.1h-4.08V182.35z M438.38,195.27c3.71-0.58,14.51,2.31,13.86-4.52
		c0.67-6.83-10.17-3.95-13.86-4.52v-3.88c6.59-0.05,18.7-1.57,18.2,8.4c0.49,9.95-11.62,8.47-18.2,8.4V195.27z M446.3,198.25
		l4.06-0.92l7.44,14.12h-4.84L446.3,198.25z"/>
	<path class="st0" d="M512.45,182.37h4.08v29.08h-4.08V182.37z M514.43,182.37h16.7v3.88h-16.7V182.37z M514.43,195.07h14.5v3.88
		h-14.5V195.07z M514.43,207.57h16.7v3.88h-16.7V207.57z"/>
</g>
<g>
	<path class="st0" d="M604.82,105.19c3.17,20.29-10.56,53.64,15.11,61.96c-22.53,0-45.06,0-67.6,0c14.6-3.57,15.81-14.53,15.65-27.1
		c-0.4-31.29-0.31-62.6-0.04-93.89c0.09-10.57-2.28-19.22-15.64-24.21c18.9,0,34.88,0,51.85,0c0,25.62,0,50.78,0,75.57
		c48.18,16.25,59.59-64.05,17.19-74.33c79.07-17.96,86.47,85.26,4.14,79.28c52.52-0.84,58.5,71.96,105.46,82.53
		c-71.26,10.85-84.01-34.69-124.07-80.66C606.19,104.61,605.51,104.9,604.82,105.19z"/>
	<path class="st0" d="M22.64,21.97C41.88,25,69.49,14.37,84.05,28.8c26.13,32.06,51.34,63.93,77.55,96.04
		c4.29-26.79,0.4-54.51,1.5-81.76c-0.07-11.65-3.5-16.25-16.37-20.93c12.6,0,23.35,0,36.71,0c-14.63,6.22-14.33,17.39-14.26,28.82
		c0.23,38.61,0.05,77.07,0.07,115.71c-10.98,2.15-18.7,1.24-26.11-8.3c-30.81-39.65-62.72-78.44-94.07-117.67
		C42.01,31.87,34.2,24.53,22.64,21.97z"/>
	<path class="st0" d="M327.88,157.69c42.45-45.04-38.28-144.1-91.21-126.2C319.14-24.2,416.46,95.87,327.88,157.69z"/>
	<path class="st0" d="M237.05,31.2c-45.52,39.48,36.83,144.84,87.21,126.22C242.81,217.24,148.37,86.24,237.05,31.2z"/>
	<path class="st0" d="M403.96,34.08c-33.09,46.27,42.69,143.22,95.17,122.43C419,214.98,321.79,97.01,403.96,34.08z"/>
	<path class="st0" d="M504.38,153.9c31.91-46.74-48.22-145.43-99.41-120.53C484.39-23.52,586.02,84.7,504.38,153.9z"/>
	<path class="st2" d="M16.56,142.02C35.55,138.79,44.39,129.2,46,110.6c2.9,17.54,10.95,28.17,30.21,31.34
		c-18.57,3.8-27.44,13.41-29.85,29.51C43.93,155.39,35.09,145.67,16.56,142.02z"/>
</g>
</svg>
